<?xml version="1.0" encoding="utf-8"?>
<!-- Generator: Adobe Illustrator 24.1.1, SVG Export Plug-In . SVG Version: 6.00 Build 0)  -->
<svg version="1.1" id="Layer_1" xmlns="http://www.w3.org/2000/svg" xmlns:xlink="http://www.w3.org/1999/xlink" x="0px" y="0px"
	 viewBox="0 0 1046 495.5" style="enable-background:new 0 0 1046 495.5;" xml:space="preserve">
<style type="text/css">
	.st0{fill:#DEAE8A;}
	.st1{opacity:0.7;}
	.st2{fill:#FFE8DA;}
	.st3{opacity:0.5;fill:#D49570;enable-background:new    ;}
	.st4{opacity:0.2;fill:#FFE6D6;enable-background:new    ;}
</style>
<path class="st0" d="M281,14.4C275.9,9.3,266.9,8,260.2,7c-8.2-1.4-16.6-1.7-24.8-0.9c-14.2,1.5-27.8,6-41.6,9
	c-6.9,1.6-13.9,2.5-21,2.7c-7.3,0-14.6-1.1-21.6-3.4c-14.3-4.4-28.3-10-43-12.8C93-1.3,77.9-0.4,63.8,5.8c-11,4.9-19.5,14-26.2,23.7
	c-7.1,10.2-12.2,21.6-16.8,33.1c-4.7,11.7-8.9,23.6-13,35.6c-8.3,24.6-14,53.9,4.9,75.2c7.4,8.3,17.7,13.4,28,17.1
	c5.3,2,10.8,3.6,16.2,5.2c5.9,1.8,11.8,4,17.8,5.3c26,5.8,53.5-7.7,68.6-29c7.6-10.8,12.4-23.5,22.3-32.6c10.5-9.6,24.2-12.5,38-12
	c12.8,0.5,25.4,3.1,38.3,3.3c9.9,0.1,22.3-1.1,28.8-9.6c6.3-8.2,2.8-19.5-3.1-26.9c-9.6-12-28.6-18.6-22.4-38c1.2-3.9,4.2-7,7.2-9.7
	c6.9-6.1,15.4-10,22.8-15.3C280.6,27.3,287.3,20.7,281,14.4z"/>
<g class="st1">
	<path class="st2" d="M34.5,135.3c10.9,7.1,25.3,8.9,38,7.2c6.5-0.7,12.8-2.6,18.6-5.7c5.7-3.1,10.4-7.8,15.3-11.9
		c4.8-3.9,10-7,16.1-8.4c7.2-1.6,14.2-0.7,21.1,1.6s13.3,5.5,20.5,6.6c6,1,12.1,0.7,17.9-1.1c10.6-3.5,18.4-12,23.9-21.5
		c5.5-9.7,8.6-20.3,12.1-30.8c1.8-5.2,3.8-10.5,7-15c2.9-4,7.1-6.9,12-6.3c4.6,0.5,9.1,4.2,12.9,7.2c4.6,3.6,9.3,7.5,15,9.2
		c5.6,1.5,11.6,1.1,17-1.1c5-2,9.3-5.2,12.7-9.4c7.2-8.7,10.8-19.8,11.9-30.9c0.3-2.5,0.3-5,0.3-7.6c-0.1-3.2-5.1-3.2-5,0
		c0.4,10.5-2.2,20.9-7.3,30c-5.1,8.8-13.3,15.1-23.7,14.8c-11.5-0.3-18.3-11.6-28.2-15.8c-5.1-2.3-11-1.8-15.6,1.2
		c-4.7,3.1-7.9,8-10.2,13.1c-4.5,9.8-6.7,20.4-11,30.3c-4.1,9.5-9.8,19.1-18.7,24.7c-4.3,2.7-9.3,4.3-14.4,4.5
		c-6.7,0.3-13-1.5-19.3-3.8c-6.5-2.4-12.9-5-19.9-5.6c-7.3-0.6-14.7,0.8-21.2,4.1c-5.5,2.8-10,7-14.7,10.9s-9.5,7.5-15.4,9.4
		c-12.3,4-25.6,3.8-37.7-0.5c-2.6-1-5.1-2.2-7.5-3.8C34.3,129.2,31.8,133.6,34.5,135.3L34.5,135.3z"/>
</g>
<g class="st1">
	<path class="st2" d="M34.4,117.3c5.3,4.1,11.2,7.3,17.6,9.3c6.5,2.2,13.5,3.8,20.4,3.4c13-0.8,22.5-9.8,31.7-18
		s20.3-17.3,33.5-14.6c11,2.2,19.1,10.6,29.3,14.7c4.6,1.8,9.6,2.4,14.3,0.6c5.1-2,9.3-5.6,12-10.4c6-10.2,6.8-22.7,8.4-34.1
		c0.9-6.3,2.1-12.6,5.4-18.1c2.7-4.6,6.8-8.2,11.8-10.1c10.9-4,23.5-0.2,33.6,4.5c8.9,4.2,20.3,9,29.6,3
		c8.4-5.5,10.6-16.9,11.4-26.1c0.3-3.3,0.4-6.6,0.3-10c0-0.3-0.2-0.5-0.5-0.5s-0.5,0.2-0.5,0.5c0.2,6.3-0.4,12.7-1.7,18.8
		c-1.1,4.7-2.8,9.4-5.9,13.1c-7,8.2-18.3,6.4-27.2,2.6c-3-1.3-5.9-2.8-9-4c-2.8-1.2-5.7-2.1-8.7-2.9c-5.2-1.5-10.6-1.9-16-1.4
		c-4.8,0.5-9.3,2.5-12.9,5.6c-4.3,3.7-7,8.8-8.6,14.1c-1.7,5.7-2.3,11.6-3,17.5c-0.7,6-1.8,11.9-3.4,17.8
		c-1.6,5.4-4.1,10.9-8.3,14.8c-3.9,3.8-9.2,5.8-14.6,5.4c-5.1-0.5-9.8-3.2-14.1-5.8c-4.7-2.9-9.3-6-14.4-8.2
		c-4.9-2.4-10.4-3.3-15.8-2.6c-6.1,0.9-11.7,3.9-16.6,7.5c-10.1,7.4-18.2,18-30,23c-6,2.4-12.6,3.1-19,1.9c-7.1-1.1-14-3.4-20.5-6.8
		c-2.8-1.4-5.5-3.2-8-5.2C34.7,116.1,33.9,116.8,34.4,117.3L34.4,117.3z"/>
</g>
<g class="st1">
	<path class="st2" d="M45.2,115.8c5,3.2,10.6,5.2,16.5,5.9c4.8,0.4,9.6-0.4,14-2.2c9.5-3.8,17.3-10.8,25.5-16.7
		c10.1-7.1,21.4-12.7,34.1-12.3c7.3,0.2,14.3,2.3,21.3,4.2c3.6,1,7.2,1.9,10.9,2.5c3.3,0.7,6.7,0.9,10.1,0.7
		c4.6-0.3,8.9-2.5,11.8-6.1c2.9-3.7,4.2-8.3,5-12.9c0.8-5,1.2-10,1.4-15.1c0.3-6,0.9-11.8,3-17.4c1.8-5.1,4.8-9.7,8.9-13.3
		c4.1-3.4,9.3-5.3,14.6-5.3c9.5,0,17.6,5.4,26.1,9.1c3.6,1.6,7.3,2.9,11.1,4c3.4,1,6.9,1.5,10.5,1.3c2.8-0.1,5.5-1.4,7.3-3.5
		c2.2-2.9,2.4-6.8,2.1-10.3c-0.3-2.7-0.8-5.4-1.5-8.1c-0.1-0.3-0.4-0.4-0.6-0.4c-0.3,0.1-0.4,0.4-0.4,0.6c1.7,6.3,4,17.7-4.5,20.2
		c-3.1,0.9-6.5,0.5-9.6-0.1c-3.8-0.8-7.5-2-11.1-3.5c-3.5-1.4-7-3-10.4-4.7c-4.3-2.1-8.4-4.2-13.1-5.1c-5.2-1.2-10.6-0.7-15.5,1.4
		c-4.5,2.1-8.3,5.4-11,9.6c-3,4.7-5,9.9-5.9,15.3c-1,5.3-1,10.7-1.3,16.1c-0.6,8.8-1.7,20.7-10.5,25.3c-5.5,2.9-12.2,1.9-18,0.8
		c-7-1.4-13.8-3.8-20.9-5.2c-7-1.6-14.4-1.6-21.4,0c-5.4,1.3-10.5,3.4-15.3,6.3c-9,5.2-16.8,12.3-25.7,17.8c-4,2.6-8.5,4.5-13.1,5.5
		c-5.1,0.9-10.3,0.5-15.1-1.2c-3-1.1-5.9-2.4-8.7-4.1c-0.2-0.1-0.5-0.1-0.7,0.2C44.9,115.4,45,115.7,45.2,115.8L45.2,115.8z"/>
</g>
<g class="st1">
	<path class="st2" d="M97.8,93.6c6.6-4.2,13.4-7.8,21-9.7c4-1.1,8.2-1.7,12.4-1.8c4,0,8,0.3,11.9,1c7.5,1.3,15,3.2,22.7,2.8
		c4-0.1,7.9-1.4,11.2-3.8c2.7-2.2,4.8-5.1,6-8.4c1.4-3.7,2.3-7.5,2.7-11.3c0.6-4.2,1-8.4,1.5-12.7c0.4-4.1,1.2-8.2,2.2-12.2
		c0.9-3.7,2.5-7.1,4.8-10.1c2.5-3,5.8-5.2,9.6-6.2c1.1-0.3,2.2-0.6,3.3-0.7c0.6-0.1,0.4-1.1-0.3-1c-4.1,0.6-8,2.3-11.2,5
		c-2.7,2.6-4.8,5.7-6.1,9.3c-1.4,3.8-2.3,7.8-2.8,11.8c-0.6,4.3-1,8.5-1.5,12.8c-0.4,4.1-1.1,8.1-2.1,12c-0.9,3.4-2.5,6.6-4.8,9.3
		c-2.5,2.7-5.9,4.4-9.6,5c-3.1,0.5-6.3,0.5-9.5,0.2c-3.9-0.4-7.7-1.1-11.5-1.8c-7.9-1.5-15.8-2.7-23.7-1.2c-2,0.4-4,0.7-5.9,1.2
		s-3.8,1.1-5.6,1.8c-3.5,1.4-7,3-10.2,4.9c-1.7,1-3.4,2-5,3C96.9,93,97.4,93.9,97.8,93.6L97.8,93.6z"/>
</g>
<g class="st1">
	<path class="st2" d="M105.6,81.3c6.1-3.6,13-4.2,19.9-3.6c6.9,0.6,13.6,2.1,20.4,2.6c3.3,0.3,6.6,0.2,9.9-0.3
		c2.2-0.3,4.4-1,6.4-2.1c2.7-1.7,5-4,6.6-6.8c1.8-3.2,3.3-6.6,4.3-10.1c1.2-3.9,2.1-7.8,3-11.8s1.8-8,2.9-12
		c0.9-3.7,2.2-7.2,3.9-10.6c1.4-2.9,3.4-5.5,5.9-7.4c2.7-1.9,5.9-2.8,9.2-2.7c1,0,1.9,0.1,2.9,0.2c0.6,0.1,0.9-0.9,0.3-1
		c-3.6-0.6-7.2-0.2-10.5,1.2c-2.9,1.4-5.3,3.6-7,6.3c-1.9,3.1-3.4,6.4-4.5,9.8c-1.3,3.9-2.2,7.8-3.1,11.8s-1.8,8.1-2.8,12.1
		c-0.9,3.7-2.2,7.3-3.7,10.8c-1.3,3-3.3,5.7-5.8,7.9c-3.7,3-8.7,3.7-13.3,3.8c-6.9,0.1-13.6-1.4-20.4-2.3
		c-6.8-0.9-13.7-1.2-20.2,1.1c-1.6,0.6-3.1,1.3-4.6,2.2c-0.2,0.1-0.3,0.5-0.2,0.7C105,81.3,105.3,81.4,105.6,81.3L105.6,81.3z"/>
</g>
<g class="st1">
	<path class="st2" d="M169.6,35.3c0,3.8,0,7.6-0.3,11.3c-0.2,3.5-1,6.9-2.4,10.2c-2.7,6.1-8.5,10.2-15.1,10.8
		c-2.6,0.2-5.1,0.1-7.7-0.1c-3.1-0.2-6.1-0.5-9.2-0.8c-6.1-0.6-12.3-1.2-18.4-0.3c-4.6,0.7-9.4,2.5-11.2,7.1
		c-0.2,0.5-0.4,1.1-0.5,1.7s0.8,0.9,1,0.3c0.4-2.2,1.6-4.1,3.4-5.4c2-1.3,4.3-2.2,6.7-2.5c6-1,12.2-0.4,18.2,0.1
		c5.7,0.5,11.5,1.4,17.2,1c6.5-0.4,12.3-4,15.6-9.6c3.6-6.3,3.7-14,3.7-21v-2.8c0-0.3-0.2-0.5-0.5-0.5S169.6,35.1,169.6,35.3
		L169.6,35.3z"/>
</g>
<g class="st1">
	<path class="st2" d="M105.5,61.3c4.8-1.8,9.9-2.6,15-2.3c4.8,0.1,9.5,0.8,14.2,1.4c4,0.5,8.1,1,12.1,0.1c3.6-0.7,6.7-2.9,8.6-6
		c1.2-2.1,2.1-4.4,2.6-6.8c0.7-3.3,1.1-6.6,1.1-10c0-1,0.1-2,0.1-3c0-0.3-0.2-0.5-0.5-0.5s-0.5,0.2-0.5,0.5c0,3.6-0.2,7.3-0.8,10.9
		c-0.4,2.5-1.1,5-2.2,7.3c-1.5,3.3-4.4,5.7-7.8,6.6c-3.8,0.9-7.8,0.5-11.6,0.1c-4.6-0.5-9.2-1.3-13.8-1.5c-5-0.3-10,0.2-14.8,1.7
		c-0.6,0.2-1.2,0.4-1.8,0.7S104.8,61.5,105.5,61.3L105.5,61.3z"/>
</g>
<path class="st3" d="M623,443.4c-16.8-21.3-14.8-55,4.3-74.2c14.3-14.3,34.9-19.8,52.9-29s35.4-26.5,32.7-46.5
	c-1.7-12.6-11.3-24.1-8.9-36.6c2.6-13.8,19-21.1,32.9-19.1s25.9,10.4,37.9,17.6c29.2,17.5,61.6,29.1,95.4,34.1
	c12.6,1.9,25.6,2.8,38-0.3s24.1-10.6,29.8-22c13.3-26.9-11.5-60.9,0.5-88.4c5.5-12.6,18.1-21.1,31.5-24.5
	c25.6-6.4,54.7,5.8,68.1,28.5s9.9,54.1-8.1,73.4c-14.4,15.4-35.5,22.3-54.8,30.8s-39.3,20.8-46,40.8c-7.6,22.8,5.1,48.2,23.3,63.9
	c12.8,11,30,22.1,28.9,38.9c-0.6,8.6-6.5,16.3-14.1,20.5s-16.5,5.3-25.2,4.6c-17.6-1.2-34-8.9-51.2-12.6s-37.5-2.6-49.2,10.4
	c-6.1,6.7-9,15.6-13.1,23.7S818,493.5,809,495.2c-12.1,2.3-23-7.8-29.5-18.2s-11.7-22.6-22.3-28.9c-22.1-13.3-46.3,6.1-67.4,12.3
	C665.9,467.3,639.3,464.1,623,443.4z"/>
<path class="st4" d="M595.9,197.5c-8.3-7.2-18.3-11.5-28.4-15.5c-9.3-3.8-18.5-7.5-27.6-11.6c-4.2-1.9-8.3-4.1-12.1-6.6
	c-2.9-2-5.3-4.4-7.3-7.2c-2.1-3.2-2.9-5.8-3.6-10c-0.7-4,0-9.9,0.8-14.5c2.8-15.2,20.9-32.5,10.8-48.5c-5.9-9.4-18.8-11.7-28.9-12.8
	c-12-1.2-24.5,1.1-36.2,3.6c-11.2,2.4-23.5,5.6-33.4,11.5c-9,5.4-15.9,13.2-23.8,19.8c-2.7,2.2-5.9,3.7-9.2,4.6
	c-4.9,1.2-10.6,0.8-15.5-0.3c-7.4-1.6-25.1-11.8-30.1-1.4c-1.6,3.2-1.2,7.1,1.1,9.8c-16,3.9-30.8,12.7-44.1,22.6
	c-18.6,13.9-35,30.5-48.7,49.3c-12.1,16.5-27.7,41.5-17.8,62.4c9.2,19.4,34,21.3,48.5,35c13.2,12.5,14.1,31.9,16.3,48.8
	c2.5,19.4,7.3,38.3,23.2,51.2c17.5,14.2,42.7,21.6,64.6,14.4c20.4-6.8,35-24,47.1-40.8c12.4-17.2,21.4-39.2,41.6-48.6
	c8.4-3.9,18.2-4.9,27.3-5.6c10.8-0.9,21.5-1.5,32.2-3.4c24.1-4.3,45.6-19.7,59.1-39.9C615.7,243,615.5,214.4,595.9,197.5z"/>
</svg>
