<svg id="Layer_1" data-name="Layer 1" xmlns="http://www.w3.org/2000/svg" viewBox="0 0 850.54 444.56"><defs><style>.cls-1{fill:#f4cca9;}.cls-2,.cls-3{fill:none;}.cls-3{stroke:#2d1012;stroke-linecap:round;stroke-linejoin:round;}</style></defs><path class="cls-1" d="M779.93,82.25q2.1,4.64,3.88,9.38c.51,1.36-.62,2.29-2.28,2.75,0,.16,0,.33,0,.49,0,1.24-2.66.69-3.11.11l-.22-.3c-1.94-.14-3.73-.8-4.12-2.05q-1.47-4.78-3.3-9.44C769.17,80.86,778.39,78.87,779.93,82.25Z" transform="translate(-14.18 -42.79)"/><path class="cls-1" d="M794.48,76.17c.89,2.46,1.83,4.89,2.88,7.28.91,2.07,2.6,4.45,2.55,6.74,0,2.67-5.85,1.79-7,.7-1.87-1.71-2.76-4.28-3.71-6.6s-1.82-4.84-2.55-7.32C785.24,74.63,793.44,73.31,794.48,76.17Z" transform="translate(-14.18 -42.79)"/><path class="cls-1" d="M783,70c-.51,2.29-4.68,1.58-6,.6-2.48-1.85-3.42-6.23-3.87-9.16a1.09,1.09,0,0,1,.16-.73c0-.05,0-.1,0-.15-.87-2.09,4.53-2.21,5.65-.71,1,.26,1.75.71,1.94,1.34.6,2,1.13,4,1.62,6A4.62,4.62,0,0,1,783,70Z" transform="translate(-14.18 -42.79)"/><path class="cls-1" d="M814.25,86.31c.91,2,1.8,4,2.6,6,.72,1.42,1.48,2.82,2.32,4.18.35.58.11,1.06-.45,1.41.23.89.44,1.78.61,2.69.38,2.13-6.34,2.21-6.91.23-.8-2.49-1.71-4.93-2.69-7.35a55.32,55.32,0,0,1-2.8-6.45C806,84.28,813.24,84.08,814.25,86.31Z" transform="translate(-14.18 -42.79)"/><path class="cls-1" d="M796.69,102.79a37.12,37.12,0,0,1,3.77,7.13.9.9,0,0,1-.2,1c.52,1.28,1,2.57,1.46,3.87.65,1.89-4.22,2.25-5.21.53h0c-1.8-4-3.66-8-5.52-12C789.93,101.24,795.69,101.33,796.69,102.79Z" transform="translate(-14.18 -42.79)"/><path class="cls-1" d="M814,113.15c.15-.25.67-.27,1-.18,2-.21,4.44.25,5.12,1.41,1.06,1.8,2.42,3.56,2.83,5.61a.66.66,0,0,1-.11.55l1.44,3.31c1.11,2.55-6,2.87-7.09.73-1.59-3.14-3.21-6.26-4.76-9.41C812,114.15,812.79,113.48,814,113.15Z" transform="translate(-14.18 -42.79)"/><path class="cls-1" d="M811.64,62.67c.32.67.63,1.36.92,2.06.73,1.63,1.45,3.27,2.09,5a1.42,1.42,0,0,1,0,1.13,35.08,35.08,0,0,1,1,5.42c.14,1.39-2.8,1.45-3.5,1.37-.43,0-2.83-.63-2.68-1.59-.59-1.41-1.2-2.79-1.83-4.16A2.73,2.73,0,0,1,806,70.56c-1-2.31-1.87-4.68-2.75-7C802.12,60.37,810.44,60.17,811.64,62.67Z" transform="translate(-14.18 -42.79)"/><path class="cls-1" d="M793.34,58.9a2.09,2.09,0,0,1-1.46-.13c-1.49-.27-2.8-1-3-2-.11-.58-.23-1.15-.34-1.73a18.41,18.41,0,0,1-.38-1.88c-.4-2-.79-4-1.14-6h0c.06-2.18,6.51-2.4,7.11-.23q.68,2.41,1.27,4.86l.07.08c1,1.46,1.09,3.5,1.23,5.22C796.83,58.31,795.16,58.91,793.34,58.9Z" transform="translate(-14.18 -42.79)"/><path class="cls-1" d="M821.57,52.93c.12.82.23,1.63.3,2.45.23,2.37-7.16,2-6.68-.23a42.14,42.14,0,0,0-1.82-6.85c-.47-1-.87-2.12-1.25-3.2-1-2.75,6.5-3.11,7.33-.75.67,1.53,1.37,3.06,2.06,4.58.6,1.32,1.32,2.61.24,3.84A1.37,1.37,0,0,1,821.57,52.93Z" transform="translate(-14.18 -42.79)"/><path class="cls-1" d="M826.51,72.9a4.63,4.63,0,0,1,3.23.49c1.25.18,2.34.67,2.62,1.49.54,1.6,1.16,3.16,1.84,4.71.62,1.39,1.32,2.71.66,4.18a2.22,2.22,0,0,1-2.09,1c-1.93.47-4.95,0-5.35-1.25l-1.5-4.8a23.13,23.13,0,0,1-1.19-4.15C824.23,73.75,825.91,73,826.51,72.9Z" transform="translate(-14.18 -42.79)"/><path class="cls-1" d="M833.86,102.29c-.13-1.66,4.55-1.78,5.19-.26,1.53,3.64,3.58,7.4,4.58,11.22.94,1.4-4.19,2.25-5.15.53a.83.83,0,0,1-.07-.13,1.07,1.07,0,0,1-.38-.45c-1.43-3.44-3-6.87-4.26-10.39A.38.38,0,0,1,833.86,102.29Z" transform="translate(-14.18 -42.79)"/><path class="cls-1" d="M852.79,87.53a31.22,31.22,0,0,1,2.87,9.13c.27,1.82-5.73,2.06-6,0-.31-1.06-.66-2.11-1-3.16-1.31-1.36-1.65-3.52-2.24-5.29C845.52,85.68,851.87,85.62,852.79,87.53Z" transform="translate(-14.18 -42.79)"/><path class="cls-1" d="M839.06,67.05h0c-1.5-3.34-2.52-7-3.79-10.49-1.09-3,6.78-3.21,7.86-.8.74,1.65,1.53,3.29,2.18,5a1.27,1.27,0,0,1-.08,1.15,25.27,25.27,0,0,1,.92,4.92C846.28,69.05,840.1,69.15,839.06,67.05Z" transform="translate(-14.18 -42.79)"/><path class="cls-1" d="M855.19,68c-.25-1.05.48-1.71,1.56-2a13.81,13.81,0,0,1,.46-2.59c.09-.3.76-.28.9,0,.45.8.86,1.61,1.26,2.43,1.36.16,2.62.66,3,1.48a24.81,24.81,0,0,1,1.08,2.64c.21.38.43.75.68,1.13a.78.78,0,0,1,0,1,23.77,23.77,0,0,1,.62,4.26c.14,2.33-6.31,2.06-6.77-.24a25.22,25.22,0,0,0-1.07-4.21s-.06-.06-.08-.1A12,12,0,0,1,855.19,68Z" transform="translate(-14.18 -42.79)"/><path class="cls-2" d="M831.36,295.16c6.32,12.79,12.77,26.17,12.76,40.43s-8.63,29.62-22.64,32.33c-9.74,1.89-19.5-2.53-28.31-7.1-51.4-26.68-99.11-63.15-155.68-75.55-21.31-4.67-47.08-4.22-60.65,12.86-8.3,10.45-9.86,25-7.43,38.09s8.38,25.28,13.9,37.42c3.45,7.6,6.65,16.89,2,23.84-3.37,5.07-10.08,7-16.15,6.48s-11.72-3.17-17.32-5.57c-14.13-6.07-32.18-10.4-43.53,0-11,10.08-10.46,30.07-23.6,37.19-8.82,4.78-19.81,1.25-28.58-3.63s-17.3-11.18-27.3-12c-14.69-1.22-28,10.3-33.77,23.88s-5.55,28.82-5.28,43.56" transform="translate(-14.18 -42.79)"/><path class="cls-3" d="M31.29,277.47c-.52-1.85-1.14-3.89-1.86-6.14-7.7-24.1-11.95-26.42-13.9-37.42-2-11.45-.75-27.65,7.43-38.09C37.88,176.73,72.2,181.4,83.61,183c44.87,6.1,91,34.75,155.68,75.55,5,3.17,16.64,10.54,28.31,7.1,12.35-3.63,21.58-18.42,22.64-32.33,1.65-21.7-17.15-33.76-12.76-40.43,5.14-7.8,42.51-7.77,63.44,14.43a180,180,0,0,0,87,50.84c12.22,3,25.61,4.66,37-.66,12.16-5.66,19.88-18.6,21.75-31.88s-1.42-26.83-6.63-39.19c-3.88-9.2-8.85-18-11.13-27.76s-1.41-20.89,5.29-28.29c10-11.06,27.65-9.19,42.17-5.76s31.28,7.11,43.16-1.91c13-9.87,14-30.88,27.8-39.47,9.59-6,22.29-3.7,32.32,1.49S638.14,97.62,648,103.08s22.27,8.45,32.33,3.33c16.33-8.3,18.92-33.4,35.85-40.4,9.63-4,20.78-.49,29.77,4.79s17,12.35,26.63,16.32,22,4,29.19-3.55" transform="translate(-14.18 -42.79)"/><path class="cls-3" d="M-35,550.53" transform="translate(-14.18 -42.79)"/></svg>