<svg id="Layer_1" data-name="Layer 1" xmlns="http://www.w3.org/2000/svg" xmlns:xlink="http://www.w3.org/1999/xlink" viewBox="0 0 1067.02 529.72"><defs><style>.cls-1,.cls-10,.cls-7{fill:none;}.cls-2{fill:#823d13;opacity:0.5;}.cls-3{fill:#ffe6d6;opacity:0.2;}.cls-4{fill:#d49470;}.cls-5{clip-path:url(#clip-path);}.cls-6{fill:#fcf2db;}.cls-7{stroke:#89594f;stroke-width:2px;}.cls-10,.cls-7{stroke-miterlimit:10;}.cls-8{fill:#f6dcc2;}.cls-9{fill:#f4cca9;}.cls-10{stroke:#fcf2db;}</style><clipPath id="clip-path" transform="translate(4.53 4.18)"><path class="cls-1" d="M465.46,200.36a30.17,30.17,0,0,0-17.61,1.29c-6.05,2.52-11,7.3-15.68,11.71-5.12,4.78-10.39,10-17.2,12.22-6.45,2.11-12.4-.05-16.65-5.06-5.88-6.93-10.73-20.58-22.41-16.54-10,3.45-12.56,18.05-13.94,27a75.57,75.57,0,0,0,5,42.14c4.28,10.07,10.39,19.24,17,27.88a143.54,143.54,0,0,0,22.35,22.88c8.34,6.86,18.08,13.51,28.9,15.45,10.06,1.8,18.58-2.69,23.74-11.34,4.09-6.84,5-14.43,5.5-22.23a49.88,49.88,0,0,1,1.88-12c1.38-4.36,4.48-8,7.83-11,4.9-4.42,11.25-6.93,16.8-10.38a27.76,27.76,0,0,0,11.73-13.71c4.69-12.14.23-26.25-6.67-36.56C489,211.61,478,203,465.46,200.36Z"/></clipPath></defs><path class="cls-2" d="M639.48,473.48c-16.77-21.26-14.82-55,4.29-74.17C658,385,678.66,379.5,696.65,370.25s35.4-26.46,32.67-46.51c-1.71-12.58-11.25-24.12-8.94-36.61,2.56-13.8,19-21.08,32.94-19.12s25.86,10.37,37.89,17.59a258.68,258.68,0,0,0,95.36,34.09c12.6,1.86,25.6,2.75,38-.31s24.12-10.59,29.75-22c13.27-26.92-11.5-60.87.5-88.38,5.51-12.63,18.12-21.15,31.49-24.5,25.59-6.41,54.7,5.79,68.09,28.52s9.92,54.11-8.1,73.38c-14.43,15.43-35.46,22.32-54.81,30.78s-39.3,20.74-46,40.77c-7.64,22.81,5.07,48.19,23.32,63.86,12.77,11,30,22.11,28.86,38.9-.57,8.64-6.52,16.34-14.09,20.53s-16.55,5.25-25.18,4.65c-17.56-1.24-34-8.89-51.16-12.63s-37.44-2.6-49.24,10.46c-6.08,6.73-9,15.64-13.12,23.72s-10.42,16.07-19.33,17.78c-12.09,2.31-23-7.78-29.54-18.19s-11.74-22.59-22.29-28.93c-22.09-13.27-46.27,6.14-67.43,12.3C682.44,497.31,655.79,494.15,639.48,473.48Z" transform="translate(4.53 4.18)"/><path class="cls-3" d="M617.45,290.94c-8.29,7.15-18.33,11.46-28.38,15.53-9.26,3.75-18.52,7.5-27.64,11.59a82.64,82.64,0,0,0-12.11,6.63,29.5,29.5,0,0,0-7.34,7.22c-2.12,3.18-2.88,5.81-3.6,10-.68,4,0,9.91.84,14.46,2.76,15.21,20.91,32.52,10.85,48.48-5.91,9.37-18.78,11.72-28.92,12.75-12,1.21-24.54-1.07-36.2-3.61-11.17-2.43-23.5-5.59-33.36-11.54-9-5.43-15.89-13.16-23.84-19.85a23.87,23.87,0,0,0-9.22-4.55c-4.89-1.24-10.61-.78-15.49.26-7.37,1.58-25.07,11.76-30.11,1.42a8.87,8.87,0,0,1,1.14-9.82c-16-3.87-30.75-12.68-44.11-22.64a234.28,234.28,0,0,1-48.67-49.25c-12.07-16.46-27.74-41.48-17.81-62.42,9.21-19.41,34-21.26,48.53-35,13.19-12.47,14.14-31.94,16.29-48.8,2.48-19.39,7.32-38.3,23.2-51.17C369,86.49,394.22,79,416.07,86.26c20.4,6.75,35,24,47.11,40.83,12.41,17.23,21.37,39.22,41.56,48.61,8.39,3.9,18.23,4.87,27.33,5.65,10.77.92,21.54,1.5,32.19,3.41,24.09,4.33,45.63,19.73,59.14,39.94C637.24,245.4,637,274,617.45,290.94Z" transform="translate(4.53 4.18)"/><path class="cls-4" d="M465.46,200.36a30.17,30.17,0,0,0-17.61,1.29c-6.05,2.52-11,7.3-15.68,11.71-5.12,4.78-10.39,10-17.2,12.22-6.45,2.11-12.4-.05-16.65-5.06-5.88-6.93-10.73-20.58-22.41-16.54-10,3.45-12.56,18.05-13.94,27a75.57,75.57,0,0,0,5,42.14c4.28,10.07,10.39,19.24,17,27.88a143.54,143.54,0,0,0,22.35,22.88c8.34,6.86,18.08,13.51,28.9,15.45,10.06,1.8,18.58-2.69,23.74-11.34,4.09-6.84,5-14.43,5.5-22.23a49.88,49.88,0,0,1,1.88-12c1.38-4.36,4.48-8,7.83-11,4.9-4.42,11.25-6.93,16.8-10.38a27.76,27.76,0,0,0,11.73-13.71c4.69-12.14.23-26.25-6.67-36.56C489,211.61,478,203,465.46,200.36Z" transform="translate(4.53 4.18)"/><g class="cls-5"><path class="cls-6" d="M525.52,237.18c-29.08-9.45-60.43-7.76-90.54-6.43-30.55,1.35-63.05,4.1-92.51-6-3-1-5,3.56-1.94,4.61,56.54,19.37,118.16-4.59,175.32,10.17-25,7.19-51.28,9.77-77.17,11-14.73.68-29.48.78-44.22.48-14.51-1.83-29.07-3-43.93-1.88-2.81.21-2.9,4.77,0,4.95,14.78.93,29.59,1.61,44.4,1.89,14.86,1.88,29.66,4.47,44.64,6.05,25.61,2.69,52.16,1.19,77.23,7.63-24.8,3.94-50.27,1.9-75.19,5-29.06,3.59-56.78,14-86,16.62-3.22.29-2.62,5.25.59,5,29.22-2.61,57-12.77,86-16.63,28.31-3.76,57.29-.37,85.27-6.93,2.2-.52,3.29-3.88.68-4.79-27.66-9.68-57.51-8-86.28-10.65-4.17-.38-8.32-.86-12.46-1.38,3.3-.09,6.61-.2,9.91-.34,29-1.26,58.51-4.51,86.2-13.67C527.47,241.15,527.6,237.86,525.52,237.18Z" transform="translate(4.53 4.18)"/><path class="cls-6" d="M498.9,280.68C453.38,295.53,407.35,309,363.64,328.8c-2.94,1.33-1.11,6,1.83,4.66,43.71-19.77,89.74-33.28,135.26-48.12C503.81,284.34,502,279.69,498.9,280.68Z" transform="translate(4.53 4.18)"/></g><path class="cls-7" d="M469.64,185.89A30.17,30.17,0,0,0,452,187.17c-6,2.52-11,7.31-15.68,11.72-5.12,4.78-10.39,10-17.19,12.21-6.46,2.12-12.4,0-16.65-5.06-5.89-6.93-10.74-20.58-22.41-16.53-10,3.45-12.56,18-14,27a75.49,75.49,0,0,0,5,42.14c4.28,10.06,10.38,19.23,17,27.88a144.76,144.76,0,0,0,22.34,22.88c8.34,6.86,18.08,13.5,28.91,15.45,10.06,1.8,18.58-2.7,23.74-11.34,4.09-6.84,5-14.44,5.49-22.23a49.33,49.33,0,0,1,1.89-12c1.38-4.36,4.48-8,7.82-11,4.9-4.42,11.25-6.92,16.8-10.38a27.63,27.63,0,0,0,11.73-13.71c4.69-12.13.23-26.25-6.66-36.55C493.18,197.14,482.16,188.57,469.64,185.89Z" transform="translate(4.53 4.18)"/><path class="cls-8" d="M-1.12,69.52c49.51,7.35,108.27,29.37,129.68,78.81,11.7,27,9,58,.67,85.5-4.32,14.25-10.1,28-16.23,41.57-5.49,12.14-11,24.37-17.71,35.9C87.9,324,78.75,335.79,66.36,343.92,57.1,350,45.91,355.45,43.45,367.29c-.55,2.66,8.31,3,9-.32,2.44-11.76,16.1-16.72,24.78-23.12,10.37-7.65,18.47-18,25.14-28.91,7.17-11.78,12.88-24.42,18.58-36.95,6.41-14.11,12.5-28.42,17-43.27,8.41-27.76,11.22-58.37.1-85.82C128.77,126,110.36,108,89.58,95.26,62.82,78.82,32,69.68,1.12,65.1c-4.24-.63-8.23,3.53-2.24,4.42Z" transform="translate(4.53 4.18)"/><path class="cls-8" d="M-1.12,88.92c24.9,4.22,50,9.6,71.41,23.63,18.09,11.84,33.05,28.78,39.93,49.51,16.48,49.62-12.48,99.12-43.3,136C49,319.49,29.13,339.22,6.61,355.74c-1.74,1.28.62,2.67,1.72,3a7.22,7.22,0,0,0,6.12-1c21.57-15.82,40.74-34.57,58-54.94,16.26-19.16,31.47-39.77,41.13-63.13,9.73-23.53,13.62-50.38,6.47-75.18-6.28-21.82-21.06-40-39.57-52.78C56.86,95.34,29,89.23,1.12,84.5c-4.24-.72-8.19,3.41-2.24,4.42Z" transform="translate(4.53 4.18)"/><path class="cls-8" d="M-1.12,100.35A130.53,130.53,0,0,1,52.59,122C68.05,132.75,82.76,147.32,86,166.64c3.29,19.47-1.89,41.07-9.12,59.1C69.77,243.53,59,259.61,46.35,274,31.23,291.18,13.74,306-3.92,320.54c-1.64,1.35.53,2.64,1.72,3a7.08,7.08,0,0,0,6.12-1c32-26.32,64.71-55.08,81-94.24,7.81-18.75,13.53-41.62,10.09-62-3.28-19.38-17.3-34.27-32.69-45.43a142.36,142.36,0,0,0-61.21-25c-4.24-.68-8.21,3.46-2.24,4.42Z" transform="translate(4.53 4.18)"/><path class="cls-8" d="M-2.2,118.13A94.56,94.56,0,0,1,44.31,140.5c6.77,6.06,13.23,13.29,16.59,21.86,3.61,9.18,3.16,19.54,1.19,29-7.88,38-37.75,66-66,90.21-3,2.53,5.67,3.85,7.84,2,23.91-20.43,47.88-42.7,60.64-72.09,6-13.73,10.39-30.13,6.76-45C67.93,152.6,57,141.28,45.86,132.91A103.09,103.09,0,0,0,2.2,114.09c-1.61-.29-5-.62-6.12,1s-.06,2.7,1.72,3Z" transform="translate(4.53 4.18)"/><path class="cls-9" d="M762.65,90.13q-2.1,4.62-3.88,9.37c-.51,1.36.63,2.29,2.29,2.75l0,.49c0,1.24,2.67.69,3.12.11l.21-.3c1.95-.14,3.73-.8,4.12-2q1.49-4.78,3.3-9.44C773.41,88.73,764.2,86.75,762.65,90.13Z" transform="translate(4.53 4.18)"/><path class="cls-9" d="M748.1,84c-.89,2.46-1.83,4.89-2.88,7.29-.9,2.06-2.59,4.44-2.55,6.73.05,2.67,5.85,1.79,7,.7,1.87-1.71,2.77-4.28,3.71-6.59s1.82-4.85,2.56-7.33C757.34,82.5,749.14,81.18,748.1,84Z" transform="translate(4.53 4.18)"/><path class="cls-9" d="M759.6,77.9c.51,2.29,4.68,1.58,6,.6,2.48-1.85,3.42-6.23,3.87-9.16a1,1,0,0,0-.16-.72c0-.06,0-.11.05-.16.87-2.09-4.54-2.21-5.66-.7-1,.25-1.75.7-1.94,1.33-.6,2-1.13,4-1.62,6A4.78,4.78,0,0,0,759.6,77.9Z" transform="translate(4.53 4.18)"/><path class="cls-9" d="M728.33,94.18c-.9,2-1.8,4-2.6,6-.71,1.42-1.47,2.82-2.31,4.18-.36.58-.12,1.06.44,1.41-.23.89-.44,1.78-.6,2.69-.38,2.13,6.33,2.21,6.9.23.8-2.49,1.72-4.93,2.7-7.34a55,55,0,0,0,2.79-6.45C736.64,92.15,729.34,92,728.33,94.18Z" transform="translate(4.53 4.18)"/><path class="cls-9" d="M745.9,110.67a36.25,36.25,0,0,0-3.78,7.12.9.9,0,0,0,.2,1c-.52,1.28-1,2.57-1.46,3.87-.65,1.89,4.23,2.26,5.21.53h.06c1.8-4,3.65-8,5.52-12C752.65,109.11,746.9,109.21,745.9,110.67Z" transform="translate(4.53 4.18)"/><path class="cls-9" d="M728.55,121c-.15-.25-.66-.27-1-.18-2-.21-4.44.25-5.12,1.41-1.06,1.8-2.41,3.56-2.83,5.61a.73.73,0,0,0,.11.56l-1.44,3.3c-1.11,2.55,6,2.87,7.09.73,1.59-3.13,3.22-6.25,4.76-9.41C730.58,122,729.79,121.35,728.55,121Z" transform="translate(4.53 4.18)"/><path class="cls-9" d="M731,70.54c-.33.67-.63,1.36-.93,2.06-.73,1.64-1.45,3.27-2.08,5a1.38,1.38,0,0,0,0,1.13,36.32,36.32,0,0,0-1,5.42c-.14,1.39,2.8,1.45,3.51,1.37.42,0,2.83-.63,2.67-1.59.59-1.41,1.21-2.79,1.84-4.16a2.72,2.72,0,0,0,1.58-1.29c1-2.31,1.86-4.67,2.74-7C740.46,68.24,732.15,68,731,70.54Z" transform="translate(4.53 4.18)"/><path class="cls-9" d="M749.25,66.77a2.07,2.07,0,0,0,1.45-.13c1.49-.27,2.8-1,3-2,.12-.58.23-1.15.35-1.73a18.34,18.34,0,0,0,.37-1.88c.4-2,.8-4,1.14-6.05h0c-.07-2.18-6.52-2.4-7.12-.23-.45,1.61-.86,3.24-1.27,4.86l-.07.08c-1,1.46-1.09,3.5-1.23,5.22C745.75,66.18,747.42,66.78,749.25,66.77Z" transform="translate(4.53 4.18)"/><path class="cls-9" d="M721,60.81c-.13.81-.23,1.62-.31,2.44-.22,2.37,7.16,2,6.68-.23a42.14,42.14,0,0,1,1.82-6.85c.47-1,.87-2.12,1.25-3.2,1-2.75-6.5-3.1-7.33-.75-.67,1.53-1.37,3.06-2.06,4.58-.6,1.32-1.31,2.61-.24,3.84Z" transform="translate(4.53 4.18)"/><path class="cls-9" d="M716.07,80.77a4.69,4.69,0,0,0-3.23.49c-1.25.18-2.33.67-2.61,1.49-.55,1.6-1.17,3.16-1.85,4.71-.62,1.39-1.32,2.71-.66,4.18a2.25,2.25,0,0,0,2.09,1c1.93.47,5,0,5.36-1.25l1.5-4.79a23.44,23.44,0,0,0,1.18-4.16C718.35,81.62,716.67,80.88,716.07,80.77Z" transform="translate(4.53 4.18)"/><path class="cls-9" d="M708.72,110.16c.14-1.66-4.55-1.78-5.19-.25-1.53,3.63-3.58,7.4-4.57,11.21-1,1.41,4.18,2.25,5.14.53a.83.83,0,0,0,.07-.13,1.07,1.07,0,0,0,.38-.45c1.44-3.44,3-6.87,4.26-10.39A.37.37,0,0,0,708.72,110.16Z" transform="translate(4.53 4.18)"/><path class="cls-9" d="M689.79,95.4a31.32,31.32,0,0,0-2.87,9.13c-.27,1.82,5.74,2.06,6,0,.31-1.07.66-2.12,1-3.17,1.31-1.36,1.65-3.51,2.24-5.29C697.06,93.56,690.71,93.49,689.79,95.4Z" transform="translate(4.53 4.18)"/><path class="cls-9" d="M703.52,74.92h0c1.5-3.34,2.52-7,3.79-10.49,1.09-2.95-6.79-3.21-7.87-.8-.73,1.65-1.53,3.29-2.17,5a1.24,1.24,0,0,0,.07,1.15,26.8,26.8,0,0,0-.92,4.93C696.3,76.92,702.49,77,703.52,74.92Z" transform="translate(4.53 4.18)"/><path class="cls-9" d="M687.39,75.88c.25-1-.48-1.71-1.56-2a13.18,13.18,0,0,0-.46-2.59c-.09-.3-.76-.28-.9,0-.45.8-.86,1.61-1.26,2.43-1.36.16-2.62.66-3,1.48a24.81,24.81,0,0,0-1.08,2.64,11.28,11.28,0,0,1-.68,1.13.77.77,0,0,0,.06,1,24.71,24.71,0,0,0-.63,4.26c-.14,2.33,6.31,2.06,6.77-.24a26.23,26.23,0,0,1,1.07-4.21.39.39,0,0,0,.08-.1A12,12,0,0,0,687.39,75.88Z" transform="translate(4.53 4.18)"/><path class="cls-10" d="M647.25,188c6.32-12.79,12.78-26.17,12.76-40.43s-8.63-29.62-22.64-32.33c-9.74-1.89-19.5,2.53-28.31,7.1C557.66,149,510,185.51,453.38,197.91c-21.31,4.67-47.08,4.22-60.65-12.86-8.3-10.45-9.86-25-7.43-38.09s8.38-25.28,13.9-37.42c3.45-7.6,6.66-16.89,2-23.84-3.38-5.07-10.09-7-16.16-6.48s-11.72,3.17-17.31,5.57c-14.13,6.07-32.19,10.4-43.54,0-11-10.08-10.46-30.07-23.6-37.19-8.82-4.78-19.81-1.24-28.58,3.63s-17.3,11.18-27.3,12c-14.68,1.22-28-10.3-33.76-23.88s-5.56-28.82-5.29-43.56" transform="translate(4.53 4.18)"/></svg>