<svg id="Layer_1" data-name="Layer 1" xmlns="http://www.w3.org/2000/svg" viewBox="0 0 1541.89 591.36"><defs><style>.cls-1{fill:#deae8a;}.cls-2{opacity:0.7;}.cls-3{fill:#ffe8da;}.cls-4{fill:#823d13;opacity:0.5;}.cls-5{fill:#ffe6d6;opacity:0.2;}</style></defs><path class="cls-1" d="M255.37-1.92c-7.55-7.56-20.91-9.48-31-11a141.61,141.61,0,0,0-36.95-1.31C166.41-12,146.2-5.41,125.59-.86a158.31,158.31,0,0,1-31.18,4,102.12,102.12,0,0,1-32.16-5c-21.27-6.56-42-14.91-64-19.08-22.44-4.28-44.87-2.88-65.89,6.39-16.36,7.22-29,20.79-39,35.23-10.54,15.15-18.28,32.12-25.11,49.19C-138.7,87.26-145,105-151,122.78c-12.33,36.61-20.83,80.19,7.27,111.91,11,12.41,26.36,19.85,41.65,25.49,7.93,2.93,16,5.35,24.15,7.79,8.81,2.65,17.49,5.9,26.48,7.9,38.72,8.63,79.64-11.38,102-43.19,11.31-16.11,18.38-34.89,33.15-48.44,15.62-14.35,35.93-18.67,56.55-17.9,19.06.7,37.85,4.68,56.95,4.9,14.73.16,33.13-1.69,42.86-14.34,9.4-12.22,4.18-29-4.56-40C221.25,99,193,89.26,202.14,60.38,204,54.6,208.4,49.92,212.83,46,223,36.9,235.72,31.07,246.77,23.16,254.78,17.42,264.74,7.47,255.37-1.92Z" transform="translate(162.55 23.25)"/><g class="cls-2"><path class="cls-3" d="M-110.58,177c16.06,10.49,37.19,13,55.89,10.6a76.62,76.62,0,0,0,27-8.26c8.35-4.56,15.26-11.52,22.56-17.52S10.09,151.05,19.38,149c10.86-2.4,21.58-1.08,32,2.42,10.13,3.4,19.83,8.13,30.47,9.77a56,56,0,0,0,26-1.61c15.54-5.06,26.88-17.55,34.81-31.39,8.2-14.3,12.68-30,17.92-45.49,4.37-12.93,12.32-34.52,29.59-32.57,7.69.87,14.25,6.49,20.09,11.11,6.65,5.28,13.47,10.89,21.76,13.35,7.85,2.33,17.09,1.35,24.64-1.67a46.48,46.48,0,0,0,18.39-13.65c10.43-12.59,15.75-29,17.37-45.07A90,90,0,0,0,292.86,3c-.08-3.21-5.08-3.23-5,0,.4,15.52-3.18,31.69-11.06,45.15s-20.5,23-36.43,22.67C223,70.41,212.85,53.51,197.9,47.17a23.3,23.3,0,0,0-22.18,1.67c-6.83,4.48-11.33,11.74-14.67,19-6.7,14.56-9.94,30.42-16.35,45.11-6.2,14.23-14.79,28.71-28.26,37.14a45.62,45.62,0,0,1-22,6.88c-10.12.47-19.59-2.18-29-5.7-9.57-3.58-19-7.42-29.31-8.35a57.74,57.74,0,0,0-31,5.89c-8,4.08-14.72,10.21-21.54,16a109.83,109.83,0,0,1-11.54,8.84,53.73,53.73,0,0,1-11.95,5.51,87.67,87.67,0,0,1-56.76-.81,56.06,56.06,0,0,1-11.4-5.72c-2.7-1.76-5.21,2.57-2.52,4.32Z" transform="translate(162.55 23.25)"/></g><g class="cls-2"><path class="cls-3" d="M-111.18,151c7.64,6.24,16.8,10.59,26.08,13.8,9.61,3.32,20,5.64,30.28,5,19.2-1.12,33.42-14.53,47-26.71,13.7-12.34,30.31-25.84,50.06-21.84,16.34,3.32,28.46,15.8,43.59,21.89,6.78,2.73,14.12,3.57,21.07,1a34.88,34.88,0,0,0,17.71-15.32c9-15.12,10.15-33.68,12.48-50.69,1.28-9.36,3.13-18.76,8-27A34.61,34.61,0,0,1,162.8,35.94c16.33-6,35.06-.28,50.11,6.73,13.18,6.14,30.1,13.41,43.82,4.46,12.39-8.08,15.68-25,16.85-38.65.42-4.93.55-9.87.49-14.82a.5.5,0,0,0-1,0c.1,9.4-.4,18.91-2.5,28.11-1.59,7-4.16,14.12-8.89,19.65C251.17,53.73,234.36,51,221,45.33c-4.49-1.89-8.79-4.17-13.3-6A102.06,102.06,0,0,0,194.84,35c-7.71-2-15.83-3.09-23.78-2A36.3,36.3,0,0,0,152,41.15c-6.29,5.4-10.29,13-12.7,20.8-2.59,8.39-3.36,17.24-4.51,25.91-1.19,8.9-2.55,17.85-5.15,26.47-2.45,8.13-6.12,16.26-12.37,22.2-5.8,5.51-13.82,8.9-21.87,8.1-7.66-.75-14.65-4.69-21.11-8.61-7-4.25-13.82-8.92-21.34-12.26-7.33-3.25-15.25-5-23.28-3.85-9,1.3-17.32,5.77-24.58,11.1C-10,142-22,157.83-39.53,165.2-48.62,169-58.3,169.56-68,168.06A100.07,100.07,0,0,1-98.51,158a68.67,68.67,0,0,1-12-7.7c-.5-.4-1.21.3-.71.71Z" transform="translate(162.55 23.25)"/></g><g class="cls-2"><path class="cls-3" d="M-95.18,148.82c7.49,4.41,15.7,7.83,24.43,8.62a44.88,44.88,0,0,0,20.68-3.23c14.09-5.63,25.65-16.11,37.92-24.74,15.07-10.61,32-18.87,50.84-18.3,10.88.33,21.33,3.45,31.75,6.3,9.9,2.71,20.68,5.77,31.05,4.82,6.84-.63,13.09-3.54,17.35-9s6.21-12.37,7.39-19.08a192.21,192.21,0,0,0,2.07-22.34c.49-8.91,1.39-17.55,4.51-26,2.79-7.52,7.1-14.66,13.27-19.89a33.84,33.84,0,0,1,22-8c14.22,0,26.28,8.11,38.9,13.56a127.16,127.16,0,0,0,16.58,6c5,1.37,10.28,2.43,15.47,2,4.08-.35,8.1-1.82,10.67-5.14,3.28-4.24,3.55-10.09,3.1-15.2a70.22,70.22,0,0,0-2.25-11.94.5.5,0,0,0-1,.27c2.55,9.51,5.91,26.59-6.88,30.34-4.66,1.37-9.78.77-14.45-.19a98.64,98.64,0,0,1-16.59-5.24c-5.25-2.1-10.38-4.48-15.45-7-6.3-3.08-12.49-6.15-19.44-7.56a37.86,37.86,0,0,0-22.89,2,38.6,38.6,0,0,0-16.27,14.24,61.46,61.46,0,0,0-8.81,22.73c-1.47,7.85-1.43,15.88-2,23.83-.94,13.13-2.6,30.91-15.71,37.87-8.24,4.36-18.25,2.9-27,1.17-10.47-2.07-20.58-5.63-31-7.79a72.89,72.89,0,0,0-31.73,0,83.5,83.5,0,0,0-22.65,9.28c-13.44,7.77-24.94,18.36-38.18,26.42-6.06,3.7-12.58,6.79-19.59,8.15a44.29,44.29,0,0,1-22.59-1.8,70.16,70.16,0,0,1-13-6.1.5.5,0,0,0-.5.86Z" transform="translate(162.55 23.25)"/></g><g class="cls-2"><path class="cls-3" d="M-17.13,115.76c9.79-6.23,20.08-11.69,31.41-14.51,3-.74,5.94-1.25,8.93-1.77a61.78,61.78,0,0,1,9.4-.88,98.07,98.07,0,0,1,17.77,1.55c11.17,1.86,22.34,4.76,33.75,4.24,5.9-.28,11.88-1.91,16.6-5.56a28.92,28.92,0,0,0,8.83-12.46,73.93,73.93,0,0,0,4.07-16.92c.9-6.26,1.45-12.57,2.18-18.86A119.11,119.11,0,0,1,119,32.3a40.68,40.68,0,0,1,7.26-15.1,28.5,28.5,0,0,1,14.39-9.26,40.38,40.38,0,0,1,4.88-1.06c.64-.1.37-1.07-.26-1a32.37,32.37,0,0,0-16.62,7.36,34.15,34.15,0,0,0-9,13.76,82.36,82.36,0,0,0-4.13,17.6c-.9,6.33-1.45,12.69-2.19,19a111.57,111.57,0,0,1-3.2,17.78c-1.45,5-3.6,10-7.19,14a25,25,0,0,1-14.26,7.48,52.85,52.85,0,0,1-14.27.23c-5.72-.54-11.36-1.64-17-2.69-11.65-2.18-23.45-4-35.24-1.76-3,.55-5.93,1-8.86,1.8A81.06,81.06,0,0,0,5.16,103a104.76,104.76,0,0,0-15.38,7.35c-2.51,1.44-5,3-7.42,4.5-.54.35,0,1.21.51.87Z" transform="translate(162.55 23.25)"/></g><g class="cls-2"><path class="cls-3" d="M-5.67,97.41a41.27,41.27,0,0,1,14.6-5.13A65,65,0,0,1,24.13,92c10.18.84,20.18,3.15,30.37,3.88a60.12,60.12,0,0,0,14.68-.54,28.14,28.14,0,0,0,9.32-3.09,27.94,27.94,0,0,0,9.77-10.14,67.41,67.41,0,0,0,6.28-15c1.77-5.8,3.12-11.71,4.45-17.62s2.64-12,4.27-17.85A81.73,81.73,0,0,1,109,15.89,30.18,30.18,0,0,1,118,4.82a22.87,22.87,0,0,1,13.85-4,36.83,36.83,0,0,1,4.32.36c.63.09.9-.87.27-1-5.27-.76-10.71-.49-15.59,1.8a25.85,25.85,0,0,0-10.3,9.38A59.55,59.55,0,0,0,103.88,26c-1.85,5.74-3.24,11.62-4.57,17.5s-2.66,12.05-4.23,18a92,92,0,0,1-5.57,16.1,33.18,33.18,0,0,1-8.65,11.77C75.38,93.86,68,94.93,61.11,95.05c-10.23.18-20.31-2-30.41-3.36s-20.38-1.83-30,1.64a40.45,40.45,0,0,0-6.86,3.22.5.5,0,0,0,.5.86Z" transform="translate(162.55 23.25)"/></g><g class="cls-2"><path class="cls-3" d="M89.9,29.33c0,5.63,0,11.28-.49,16.89a48.25,48.25,0,0,1-3.48,15.14,26.6,26.6,0,0,1-9.49,11.47,28.17,28.17,0,0,1-12.93,4.81,72.31,72.31,0,0,1-11.4-.11c-4.56-.31-9.11-.78-13.66-1.2-4.72-.43-9.44-.83-14.18-1a78.67,78.67,0,0,0-13.2.49A28.48,28.48,0,0,0,.56,79.07a14.12,14.12,0,0,0-6.27,7.27,15.48,15.48,0,0,0-.69,2.48c-.12.63.84.9,1,.27a13.14,13.14,0,0,1,5-8.16A23.17,23.17,0,0,1,9.38,77.1a65.88,65.88,0,0,1,12.86-.81c4.77.08,9.53.44,14.27.87s9.22.89,13.84,1.24a91.16,91.16,0,0,0,11.8.34,30.41,30.41,0,0,0,4.67-.58,30.23,30.23,0,0,0,7.62-3,27.39,27.39,0,0,0,11-10.57A40.3,40.3,0,0,0,90,50.18a122.3,122.3,0,0,0,.94-16.68c0-1.39,0-2.78,0-4.17a.5.5,0,0,0-1,0Z" transform="translate(162.55 23.25)"/></g><g class="cls-2"><path class="cls-3" d="M-5.79,67.65a57,57,0,0,1,22.38-3.5c7.07.18,14.06,1.25,21.07,2.1,5.89.72,12,1.43,17.89.26a19.36,19.36,0,0,0,7.1-2.85,18.83,18.83,0,0,0,5.58-6A33.7,33.7,0,0,0,72,47.6a81.59,81.59,0,0,0,1.67-15c.05-1.49.07-3,.07-4.47a.5.5,0,0,0-1,0,98.27,98.27,0,0,1-1.13,16.17,40.06,40.06,0,0,1-3.25,11A19.48,19.48,0,0,1,63.24,62a17.49,17.49,0,0,1-6.69,3.27C51,66.69,45,66.1,39.33,65.45c-6.87-.79-13.71-1.88-20.63-2.22a61.77,61.77,0,0,0-22,2.49q-1.36.44-2.7,1c-.59.24-.34,1.2.26,1Z" transform="translate(162.55 23.25)"/></g><path class="cls-4" d="M956.33,516c-16.77-21.26-14.82-55,4.29-74.17,14.27-14.34,34.89-19.81,52.88-29.06s35.4-26.46,32.67-46.51c-1.71-12.58-11.24-24.12-8.93-36.61,2.55-13.8,19-21.08,32.93-19.12s25.86,10.37,37.89,17.59a258.86,258.86,0,0,0,95.36,34.09c12.6,1.86,25.6,2.75,38-.31s24.12-10.59,29.75-22c13.28-26.92-11.49-60.87.5-88.38,5.51-12.63,18.12-21.15,31.49-24.5,25.59-6.41,54.71,5.79,68.09,28.52s9.93,54.11-8.1,73.38c-14.42,15.43-35.45,22.32-54.81,30.78s-39.3,20.74-46,40.77c-7.64,22.81,5.07,48.19,23.32,63.86,12.77,11,30,22.11,28.86,38.9-.57,8.64-6.52,16.34-14.09,20.53s-16.55,5.25-25.18,4.65c-17.55-1.24-34-8.89-51.15-12.63s-37.45-2.6-49.25,10.46c-6.08,6.73-9,15.64-13.12,23.72s-10.42,16.07-19.33,17.78c-12.09,2.31-23-7.78-29.54-18.19s-11.74-22.59-22.29-28.93c-22.09-13.27-46.27,6.14-67.42,12.3C999.29,539.87,972.64,536.7,956.33,516Z" transform="translate(162.55 23.25)"/><path class="cls-5" d="M808.43,200.31c-8.29-7.16-18.33-11.47-28.38-15.53-9.26-3.75-18.53-7.5-27.64-11.6a81.71,81.71,0,0,1-12.11-6.63,29.55,29.55,0,0,1-7.35-7.22c-2.11-3.18-2.87-5.81-3.59-10.05-.68-4,0-9.91.84-14.46,2.76-15.21,20.91-32.52,10.85-48.48-5.91-9.37-18.79-11.72-28.92-12.75-12-1.21-24.54,1.07-36.2,3.61-11.17,2.44-23.5,5.59-33.37,11.55-9,5.42-15.88,13.16-23.83,19.84a23.87,23.87,0,0,1-9.22,4.55c-4.89,1.24-10.61.78-15.49-.26-7.37-1.57-25.07-11.76-30.11-1.42a8.85,8.85,0,0,0,1.14,9.82c-16,3.88-30.76,12.68-44.11,22.64a234.75,234.75,0,0,0-48.67,49.25c-12.07,16.46-27.75,41.48-17.81,62.42,9.21,19.41,34,21.26,48.52,35,13.2,12.47,14.14,31.94,16.3,48.81,2.48,19.38,7.32,38.29,23.2,51.16C560,404.75,585.2,412.23,607.05,405c20.4-6.76,35-24,47.11-40.84,12.41-17.22,21.36-39.21,41.56-48.61,8.38-3.9,18.23-4.87,27.33-5.65,10.77-.92,21.54-1.5,32.19-3.41,24.09-4.33,45.63-19.73,59.14-39.94C828.22,245.84,828,217.22,808.43,200.31Z" transform="translate(162.55 23.25)"/></svg>