<svg id="Layer_1" data-name="Layer 1" xmlns="http://www.w3.org/2000/svg" viewBox="0 0 857.14 671.92"><defs><style>.cls-1{fill:#e9b7a6;}.cls-2{fill:none;}.cls-3{fill:#fcf2db;}</style></defs><path class="cls-1" d="M1084.19-327.16c-10.6-5.95-23.41-6.3-35.24-6.28-12.75,0-25.06.05-37.36-3.76-11.21-3.47-20.68-10.75-29.64-18.07-17.76-14.51-36.87-29.86-61.33-26.26" transform="translate(-282.86 382.06)"/><line class="cls-2" y1="578.78" y2="78.78"/><path class="cls-1" d="M1127.31,37.22c-4-13.6-10.5-26.08-18.14-38H994c19.12,36.34-22.89,69.2-57.67,62.35-15.13-3-23.25-10.64-39.36-6C881.76,60,871.53,69.93,866.3,85c-10.9,31.51,25,79.37-14.53,95.87-19,7.93-45.2,9.86-55,29.31a35.41,35.41,0,0,0-3.2,10c-7.33,42.68,56.62,74.2,92,69.18,20.61-2.92,38.79-10.41,60.11-11.77,29.12-1.86,57.7-6,84-19.54,17.38-8.93,31.21-21.74,42.7-37.12,3.38,1.2,6.76-.42,8.9-3.31,21.56-29.08,40.62-68.54,37.46-105.53a115.39,115.39,0,0,0,9.61-24.2A93.49,93.49,0,0,0,1127.31,37.22Z" transform="translate(-282.86 382.06)"/><path class="cls-3" d="M902.25,246.16c-4-10.36-4.69-21.7-3.94-32.72s3.33-22.93,10-31.64a29.92,29.92,0,0,1,2.38-2.7c.43-.43.88-.86,1.35-1.27s1.07-.91,1.52-1.24a20.16,20.16,0,0,1,7.63-3c6.17-1.36,12.95-1.68,18.31-5.39,1.42-1,2.72-2.13,4.12-3.15a52,52,0,0,0,4.25-3.45,33,33,0,0,0,6.36-7.77c3.38-5.88,4.76-13.43,2.35-19.91a52.23,52.23,0,0,0-4.58-8.81c-.79-1.3-1.57-2.6-2.24-4a9.68,9.68,0,0,1-.56-1.32c-.09-.29-.18-.58-.25-.87l-.09-.37c-.1-.45,0,.1,0-.17a7.48,7.48,0,0,1,0-.82c0-.49,0,.21,0-.27s.2-1.15.33-1.73a27.5,27.5,0,0,1,.93-3.18l.3-.78c0-.11.09-.22.13-.34l0-.07c.23-.52.47-1,.73-1.54a34.62,34.62,0,0,1,1.79-3.13A48.26,48.26,0,0,1,963,95.77a76.9,76.9,0,0,1,13.56-8.91,87.64,87.64,0,0,1,15.33-6.31q3.89-1.2,7.86-2c1.28-.26,2.57-.49,3.86-.69,1-.15,2.1-.28,3.37-.4a53.75,53.75,0,0,1,7.29-.17c1,0,2.48.18,3.12.26-.2,0,.43.07.58.09l.68.12c.55.1,1.1.21,1.64.34a26.73,26.73,0,0,1,2.9.85l.69.26.38.15-.12,0c.79.35,1.56.76,2.33,1.17,3.42,1.8,6.74,3.78,10,5.86,6.49,4.14,12.73,8.65,19.21,12.79,3.26,2.08,6.58,4.06,10,5.86s7,3.3,10.61,4.83c5.27,2.26,10.63,4.27,15.65,7.17a27.48,27.48,0,0,1,6.12,4.52,16.26,16.26,0,0,1,3.88,6,20,20,0,0,1,.92,8.39,2.51,2.51,0,0,0,2.5,2.5,2.55,2.55,0,0,0,2.5-2.5,22.42,22.42,0,0,0-5.51-17.09c-3.83-4.24-9.08-7-14.22-9.27-6.2-2.78-12.51-5-18.62-8.15a186,186,0,0,1-20.15-12.42,216.91,216.91,0,0,0-20-12.57,34.66,34.66,0,0,0-14.25-4c-10.7-.73-21.71,2-31.59,5.89-10.61,4.22-20.89,10.18-28.84,18.47a42.57,42.57,0,0,0-8.5,12.37,28.9,28.9,0,0,0-2.08,7,12.86,12.86,0,0,0,1.74,8.33c2.93,5.61,7.31,10.63,7,17.31s-3.76,12.2-8.56,16.54a41.62,41.62,0,0,1-4,3.22c-1.38,1-2.58,2.15-4,3a26.26,26.26,0,0,1-8.73,2.93c-3.21.63-6.48,1.05-9.64,1.93a23.23,23.23,0,0,0-8.36,4.26c-9,7.2-13.15,19.38-15,30.36a93.24,93.24,0,0,0,.86,36.61,55,55,0,0,0,2.12,7,2.56,2.56,0,0,0,3.07,1.74,2.52,2.52,0,0,0,1.75-3.07Z" transform="translate(-282.86 382.06)"/><path class="cls-3" d="M915.27,239.07a37.65,37.65,0,0,1-2.66-26.82,33.68,33.68,0,0,1,6.06-11.87,23.57,23.57,0,0,1,4.72-4.69q2.28-1.58,4.7-2.95c5.35-3.06,11.11-5.16,16.72-7.66,4.87-2.17,9.4-4.94,12.65-9.25,4.59-6.1,6.29-14,7.3-21.41.54-4,.92-8.06,1.49-12.08s1.23-7.91,2.08-11.82a82.42,82.42,0,0,1,7.86-22.36,50,50,0,0,1,15.88-17.65,47.59,47.59,0,0,1,12.51-6.1,36.6,36.6,0,0,1,15.32-1.3c10,1.26,19.21,6.4,27.09,12.5,1.88,1.46,3.71,3,5.49,4.57.48.43,1.19-.28.7-.7-7.45-6.62-15.88-12.56-25.45-15.63a40.45,40.45,0,0,0-14.81-2,39.85,39.85,0,0,0-14.72,4,50.22,50.22,0,0,0-19,15.71,67.62,67.62,0,0,0-10,21.48,158.93,158.93,0,0,0-4.53,24c-1,8.26-1.73,16.82-5.61,24.35a24.77,24.77,0,0,1-5.2,6.95,29.61,29.61,0,0,1-6.54,4.42c-5.31,2.72-11,4.59-16.36,7.28-1.6.81-3.18,1.67-4.72,2.6a29.31,29.31,0,0,0-4.71,3.23,33.94,33.94,0,0,0-7.88,10.78,37.82,37.82,0,0,0-1.75,26.43,40.66,40.66,0,0,0,2.56,6.45c.28.57,1.14.07.86-.51Z" transform="translate(-282.86 382.06)"/><path class="cls-3" d="M930.32,228.69c-1.65-5.94-2.19-12.5.49-18.23,2.27-4.86,6.44-8.41,11-11.07a88.49,88.49,0,0,1,16.43-7c5.68-1.92,11.44-3.65,17-5.89,5.27-2.13,10.24-4.73,14.09-9a28.19,28.19,0,0,0,6.38-11.76,39.57,39.57,0,0,0,.9-12.51c-.56-8.64-2.8-17.15-2.51-25.84A30.21,30.21,0,0,1,997,115a32.49,32.49,0,0,1,8.17-10.55,24.56,24.56,0,0,1,20.55-4.88,42.57,42.57,0,0,1,19.86,10.3,50.21,50.21,0,0,1,3.88,3.84c.43.48,1.13-.23.7-.71a47.59,47.59,0,0,0-18.74-12.88c-6.88-2.51-14.58-3-21.36.09a26.61,26.61,0,0,0-9.39,7.35,32.44,32.44,0,0,0-6.44,12c-2.33,8.44-.69,17.29.49,25.78s2,17.56-2,25.49a27.31,27.31,0,0,1-7.86,9.51,37.58,37.58,0,0,1-6.61,3.84,151.19,151.19,0,0,1-16.75,6.14,127.6,127.6,0,0,0-17.24,6.65c-4.87,2.43-9.57,5.61-12.7,10.15-3.36,4.88-4.19,10.81-3.39,16.59a42.42,42.42,0,0,0,1.12,5.33.5.5,0,0,0,1-.27Z" transform="translate(-282.86 382.06)"/><path class="cls-3" d="M960.32,227.19c-1.91-4.78-3.3-10.33-1.48-15.36,1.39-3.86,4.59-6.59,8.09-8.52a62.44,62.44,0,0,1,12.85-4.85,126.72,126.72,0,0,0,12.68-4,23.29,23.29,0,0,0,4.87-2.55,42,42,0,0,0,8.69-7.77,24.1,24.1,0,0,0,4.33-8.23,29.33,29.33,0,0,0,1-8.55c-.08-6.07-1.31-12.06-1.45-18.13a41,41,0,0,1,.93-10,33.12,33.12,0,0,1,3.58-9.7,20.61,20.61,0,0,1,13.76-10,19.11,19.11,0,0,1,16.23,5.12,28.28,28.28,0,0,1,3.48,3.93c.37.52,1.24,0,.86-.5-3.79-5.18-9.26-9.15-15.79-9.75a19.93,19.93,0,0,0-15.63,5.87,24.74,24.74,0,0,0-5.34,7.94,39.54,39.54,0,0,0-2.72,10.2c-.86,6.43.07,12.81.71,19.21.59,5.89.76,12-1.87,17.44a27,27,0,0,1-6.5,8.36,34.44,34.44,0,0,1-7.14,5.14c-3.84,2-8.11,3-12.24,4.23a93.58,93.58,0,0,0-13.44,4.54c-3.8,1.73-7.52,4.14-9.73,7.79-2.54,4.19-2.43,9.24-1.23,13.85a38.64,38.64,0,0,0,1.51,4.56c.24.59,1.21.33,1-.27Z" transform="translate(-282.86 382.06)"/><path class="cls-3" d="M1042.58,148.89c-2.92-2.23-6.88-4.38-10.6-2.82-3.25,1.35-5.08,4.83-6.33,7.93a65.82,65.82,0,0,0-3.37,13.28c-.73,4.31-1.26,8.65-1.94,13a43.79,43.79,0,0,1-.92,4.67,16.9,16.9,0,0,1-2.39,5,50.37,50.37,0,0,1-9.42,9.93c-4,3.45-8.23,6.65-12.35,10a108.9,108.9,0,0,0-11.6,10.39,31.36,31.36,0,0,0-7.22,11.22,17.22,17.22,0,0,0,.7,12.43,23.71,23.71,0,0,0,1.76,3.25c.35.53,1.22,0,.87-.51a17.45,17.45,0,0,1-3-12.4c.72-4.2,3.05-7.94,5.73-11.18a81.44,81.44,0,0,1,10.86-10.39c4.06-3.34,8.24-6.52,12.3-9.86A73,73,0,0,0,1016,193a21.64,21.64,0,0,0,4.83-9.51c.78-3.85,1.21-7.77,1.79-11.65a106.39,106.39,0,0,1,2.71-13.61c1-3.47,2.32-7.37,5-9.89a6.41,6.41,0,0,1,3.78-1.77,9.18,9.18,0,0,1,5,1.25,21.82,21.82,0,0,1,3,1.95c.51.39,1-.48.5-.87Z" transform="translate(-282.86 382.06)"/><path class="cls-2" d="M994-.74h30.18V210.19H796.81c9.76-19.45,36-21.38,55-29.31,39.53-16.5,3.63-64.36,14.53-95.87C871.53,69.93,881.76,60,897,55.6c16.11-4.63,24.23,3,39.36,6C971.15,68.46,1013.16,35.6,994-.74Z" transform="translate(-282.86 382.06)"/><polyline class="cls-2" points="711.18 381.33 741.36 381.33 826.31 381.33 857.14 381.33"/><path class="cls-2" d="M847.5-.74" transform="translate(-282.86 382.06)"/></svg>