<svg id="Layer_1" data-name="Layer 1" xmlns="http://www.w3.org/2000/svg" viewBox="0 0 1142.39 497.45"><defs><style>.cls-1{fill:#deae8a;}.cls-2{opacity:0.7;}.cls-3{fill:#ffe8da;}.cls-4{fill:#823d13;opacity:0.5;}.cls-5{fill:#ffe6d6;opacity:0.2;}</style></defs><path class="cls-1" d="M252.22,18.7a50.79,50.79,0,0,1-5.45,4.46c-7.13,5.1-14.93,9.34-22.31,14.14a105.67,105.67,0,0,0-8.66,6.2h0c-1,.8-2,1.62-3,2.48a46.84,46.84,0,0,0-7.62,8.27,23.64,23.64,0,0,0-3.07,6.13C193,89.26,221.25,99,235.46,116.88c8.74,11,14,27.8,4.56,40-9.73,12.65-28.13,14.5-42.86,14.34-19.1-.22-37.89-4.2-56.95-4.9-20.62-.77-40.93,3.55-56.55,17.9-14.77,13.55-21.84,32.33-33.15,48.44A109.21,109.21,0,0,1,0,271.75V3H86.92c2.48.18,5,.24,7.49.2,1.68,0,3.35-.1,5-.2H258.59C260.62,8.65,256.93,14.25,252.22,18.7Z" transform="translate(2.39 -0.55)"/><g class="cls-2"><path class="cls-3" d="M287.86,3A90.21,90.21,0,0,1,281.69,38C277.55,48.62,270.88,59,261.1,65.12a36.18,36.18,0,0,1-15.82,5.49,32.38,32.38,0,0,1-9.63-.26,33.47,33.47,0,0,1-10.59-4.43c-13-7.92-25.69-24.85-42.81-20.05-12.44,3.49-19.1,16.33-23.52,27.43s-7.39,23-11.78,34.2-10,22.5-18,31.69c-7.7,8.84-17.58,15.31-29.27,17.25A54.45,54.45,0,0,1,80,155.81c-8-1.62-15.5-4.93-23.12-7.73s-15.15-4.93-23.16-5.31a58.38,58.38,0,0,0-25.5,4.6,57.57,57.57,0,0,0-9.51,5.25c-2.65,1.79-.16,6.13,2.52,4.32a53.08,53.08,0,0,1,21.87-8.63,56.39,56.39,0,0,1,24.32,1.88c7.75,2.24,15.15,5.53,22.79,8.12A67.35,67.35,0,0,0,92.74,162a52.05,52.05,0,0,0,33.75-13.26c9.31-8.21,16-19.1,21.18-30.27s8.64-22.92,12.52-34.57a111.46,111.46,0,0,1,7.1-17.44c2.67-5,6.07-10.12,10.92-13.31,6.1-4,13.21-3.86,19.63-.55,7.4,3.8,13.47,9.73,20.16,14.57,6.44,4.65,13.47,8.24,21.52,8.56a42.36,42.36,0,0,0,18.53-3.4C269.1,67.61,277.37,58,282.83,47.54a92.82,92.82,0,0,0,9.84-36.11c.2-2.82.27-5.65.19-8.47-.09-3.21-5.09-3.22-5,0Z" transform="translate(2.39 -0.55)"/></g><g class="cls-2"><path class="cls-3" d="M.35,136c7.24-6,15.18-11.32,24.28-13.93A37.5,37.5,0,0,1,45,121.93c12.22,3.34,22.3,11.45,33.21,17.52,4.89,2.73,10.12,5.16,15.7,6a27.33,27.33,0,0,0,16.26-2.73c11.56-5.67,17.55-17.79,20.9-29.64,3.6-12.72,4.6-25.93,6.59-38.95s6.7-27.05,18.33-34.72c10.13-6.69,22.91-6.85,34.44-4.46a99.88,99.88,0,0,1,19.79,6.49c6.63,2.9,13,6.25,20,8.14,10.21,2.75,21.54,2.52,29.76-4.91C268.43,37,271.54,24.74,273,13.81c.48-3.6.77-7.22.94-10.85,0-.64-1-.64-1,0-.57,12.37-2.31,26.18-9.74,36.52a25.25,25.25,0,0,1-11.38,9,31.21,31.21,0,0,1-16.15,1.22,57.49,57.49,0,0,1-9.81-2.54q-2.85-1-5.63-2.21c-.88-.38-1.76-.78-2.63-1.19l-1.54-.73c-.06,0-.13,0-.18-.06s.07,0-.23-.14a95.48,95.48,0,0,0-19.53-7.56c-11.32-3.15-24-4.39-35.1.27-11.59,4.86-18.61,15.59-22,27.32-1.87,6.42-2.68,13.08-3.54,19.7s-1.71,13.33-3,19.93c-2.41,12.51-6.29,26.27-16.26,34.94a29,29,0,0,1-16.69,7.24c-5.63.36-11.12-1.32-16.16-3.7-11.13-5.24-20.71-13.27-32.12-18a42.33,42.33,0,0,0-18.16-3.47c-8.22.42-16.09,3.7-23,8A98.71,98.71,0,0,0-.35,135.25c-.5.41.21,1.11.7.7Z" transform="translate(2.39 -0.55)"/></g><g class="cls-2"><path class="cls-3" d="M249.55,7.51c2.44,9.12,5.89,25.6-5.84,30-4.38,1.64-9.37,1.26-13.89.47a95.91,95.91,0,0,1-19.57-6.1c-6.46-2.65-12.75-5.72-19-8.84a56.75,56.75,0,0,0-17.66-5.66,35.79,35.79,0,0,0-28,7.67c-7.91,6.58-12.84,16.18-15.53,26-2.85,10.37-2.63,21.09-3.49,31.72-.75,9.32-1.93,19.42-6.92,27.54a22.69,22.69,0,0,1-9.31,8.65c-4.84,2.35-10.38,2.79-15.67,2.36C80.39,120.14,67,114.84,53,112a76.12,76.12,0,0,0-20.91-1.66,72.49,72.49,0,0,0-22.39,5.49,94.37,94.37,0,0,0-9.94,4.89.5.5,0,0,0,.5.86,82.14,82.14,0,0,1,22.39-8.81,66.69,66.69,0,0,1,22.45-1.08c14.15,1.7,27.51,7.18,41.52,9.59,10.35,1.78,22,2.35,30.09-5.56,6.51-6.39,8.8-16,10-24.68.68-4.87,1-9.78,1.33-14.69.32-5.5.4-11,1.22-16.49C130.88,49.1,134.74,38.27,142,30a34.54,34.54,0,0,1,26.86-12,50.34,50.34,0,0,1,18.42,4.28c6.19,2.61,12.08,5.94,18.24,8.65a119.23,119.23,0,0,0,20.65,7.3c4.68,1.11,9.65,1.85,14.44,1.11a13.75,13.75,0,0,0,9.7-5.82C253.2,29,253.22,23.11,252.64,18a72.48,72.48,0,0,0-2.13-10.71.5.5,0,0,0-1,.26Z" transform="translate(2.39 -0.55)"/></g><g class="cls-2"><path class="cls-3" d="M.25,106.14a83.91,83.91,0,0,1,16.33-5.43,80.82,80.82,0,0,1,17.65-2.12c11.05,0,21.78,2.77,32.62,4.52,8.35,1.34,17.36,2.37,25.6-.1a24.68,24.68,0,0,0,12.29-8.13,37.34,37.34,0,0,0,6.47-13.41,110,110,0,0,0,3-16.7c.71-5.95,1.24-11.93,2-17.87a97.5,97.5,0,0,1,3.44-16.84,37.53,37.53,0,0,1,7.37-13.76,28.72,28.72,0,0,1,13.84-8.43,41.57,41.57,0,0,1,4.66-1c.64-.1.37-1.06-.26-1a32.7,32.7,0,0,0-15.91,6.74,32.57,32.57,0,0,0-9,12.57,70.54,70.54,0,0,0-4.37,16.21c-1,5.9-1.55,11.86-2.19,17.81a173.39,173.39,0,0,1-2.47,17.27,47.2,47.2,0,0,1-5.26,14.61,23.93,23.93,0,0,1-10.52,9.64c-6.84,3.16-14.73,3-22.06,2.25C62.77,101.89,52.25,99,41.43,98a70.6,70.6,0,0,0-16.94.31,95.54,95.54,0,0,0-17.19,4c-2.56.88-5.08,1.9-7.55,3-.59.26-.08,1.12.5.86Z" transform="translate(2.39 -0.55)"/></g><g class="cls-2"><path class="cls-3" d="M.13,94.6c7.67-2.93,15.92-3.29,24-2.62s16.36,2.31,24.56,3.3c7.84,1,15.92,1.33,23.64-.65a23.74,23.74,0,0,0,11.7-6.85,40,40,0,0,0,7.18-11.55,103.21,103.21,0,0,0,4.92-14.84C97.57,56,98.75,50.5,100,45s2.45-10.77,4-16.06a73.5,73.5,0,0,1,5.49-14,29.77,29.77,0,0,1,8.16-10,21.71,21.71,0,0,1,2.58-1.65c.57-.31.06-1.17-.5-.86a26.46,26.46,0,0,0-9.18,8.76,56.63,56.63,0,0,0-6.11,13c-1.75,5.12-3.09,10.37-4.32,15.64-1.28,5.45-2.44,10.94-3.75,16.38a142.12,142.12,0,0,1-4.44,15.42,50.07,50.07,0,0,1-6.41,12.68,24,24,0,0,1-9.61,8A34.12,34.12,0,0,1,66,94.76a66.14,66.14,0,0,1-11.94.06c-8.19-.62-16.25-2.24-24.39-3.26-8-1-16.17-1.44-24.07.34A40.7,40.7,0,0,0-.13,93.64c-.6.23-.34,1.19.26,1Z" transform="translate(2.39 -0.55)"/></g><g class="cls-2"><path class="cls-3" d="M.25,80.44A25.27,25.27,0,0,1,10.05,77a68.42,68.42,0,0,1,12.47-.7c9.06.18,18.06,1.33,27.08,2a101.37,101.37,0,0,0,11.56.44,34.79,34.79,0,0,0,4.67-.43,26.57,26.57,0,0,0,5.78-1.81,29.06,29.06,0,0,0,10.6-7.42A30,30,0,0,0,88,58.77c2.79-8.31,2.88-17.34,2.91-26V29.33a.5.5,0,0,0-1,0c0,8.77.16,17.78-2,26.34A32.28,32.28,0,0,1,83,66.48a26.69,26.69,0,0,1-9.62,8.12,29.68,29.68,0,0,1-6.54,2.52,24.88,24.88,0,0,1-4.29.59,81.07,81.07,0,0,1-11-.22c-8.91-.63-17.78-1.79-26.71-2.13a83.35,83.35,0,0,0-12.64.33A32.11,32.11,0,0,0,1.76,78.43a17.38,17.38,0,0,0-2,1.15c-.54.35,0,1.22.5.86Z" transform="translate(2.39 -0.55)"/></g><g class="cls-2"><path class="cls-3" d="M.13,65.77a67.79,67.79,0,0,1,21.12-1.38c6.56.48,13.06,1.55,19.6,2.23,5.39.56,11.06,1,16.36-.5a18.64,18.64,0,0,0,11.53-9.39,36.67,36.67,0,0,0,3.38-9.88,84.07,84.07,0,0,0,1.52-14.33c0-1.45.06-2.89.06-4.34a.5.5,0,0,0-1,0,100.81,100.81,0,0,1-1,15.53,42.72,42.72,0,0,1-2.92,10.71c-2.11,4.78-5.63,8.67-10.66,10.38s-10.55,1.45-15.75,1c-6.39-.59-12.72-1.65-19.1-2.22a74.38,74.38,0,0,0-20.75.68c-.88.17-1.75.36-2.62.58-.63.15-.36,1.12.26,1Z" transform="translate(2.39 -0.55)"/></g><path class="cls-4" d="M1140,344.42V498H947.19c-5.55-19.31-.86-41.79,13.43-56.13s34.89-19.81,52.88-29.06,35.4-26.46,32.67-46.51c-1.71-12.58-11.24-24.12-8.93-36.61,2.55-13.8,19-21.08,32.93-19.12s25.86,10.37,37.89,17.59A257.68,257.68,0,0,0,1140,344.42Z" transform="translate(2.39 -0.55)"/><path class="cls-5" d="M771.66,200.31c-8.28-7.16-18.33-11.47-28.37-15.53-9.27-3.75-18.53-7.5-27.65-11.6a82.22,82.22,0,0,1-12.11-6.63,29.33,29.33,0,0,1-7.34-7.22c-2.12-3.18-2.88-5.81-3.59-10.05-.69-4,0-9.91.83-14.46,2.76-15.21,20.91-32.52,10.85-48.48C698.37,77,685.5,74.62,675.37,73.59c-12-1.21-24.55,1.07-36.2,3.61C628,79.64,615.66,82.79,605.8,88.75c-9,5.42-15.88,13.16-23.83,19.84a24,24,0,0,1-9.22,4.55c-4.9,1.24-10.62.78-15.5-.26-7.37-1.57-25.07-11.76-30.1-1.42a8.85,8.85,0,0,0,1.13,9.82c-16,3.88-30.75,12.68-44.11,22.64a234.71,234.71,0,0,0-48.66,49.25c-12.07,16.46-27.75,41.48-17.82,62.42,9.21,19.41,34,21.26,48.53,35,13.19,12.47,14.14,31.94,16.29,48.81,2.48,19.38,7.33,38.29,23.2,51.16,17.49,14.17,42.73,21.65,64.57,14.41,20.4-6.76,35-24,47.12-40.84,12.4-17.22,21.36-39.21,41.55-48.61,8.39-3.9,18.23-4.87,27.33-5.65,10.77-.92,21.54-1.5,32.2-3.41,24.08-4.33,45.62-19.73,59.14-39.94C791.46,245.84,791.24,217.22,771.66,200.31Z" transform="translate(2.39 -0.55)"/></svg>