<svg id="Layer_1" data-name="Layer 1" xmlns="http://www.w3.org/2000/svg" viewBox="0 0 857.14 658.45"><defs><style>.cls-1{fill:#e9b7a6;}.cls-2{fill:#fcf2db;}.cls-3{fill:#89594f;}.cls-4{fill:#fccfba;}.cls-5{fill:none;}</style></defs><path class="cls-1" d="M1127.31,536c-9.58-32.6-33.54-58.72-53.1-85.63-18.54-25.5-35.71-54.8-28.22-87.46,3.87-16.86,13.61-32.18,22-47.1,10.11-18.08,20.37-36.3,27-56,5.8-17.24,8.07-36.08.42-53.09a47.89,47.89,0,0,0-19.81-21.63c-10.61-6-23.41-6.3-35.25-6.28-12.74,0-25,0-37.35-3.76-11.21-3.47-20.68-10.74-29.64-18.07-17.76-14.51-36.88-29.86-61.33-26.26-33.24,4.89-53.06,40.79-69.59,66.16-18,27.68-7.77,67.17,19.87,85.3,13.13,8.62,29,12.42,41.92,21.28,11.26,7.72,13.15,15.52,19.52,26.76,8,14.18,21.13,31.35,18.11,48.71-3.67,21.14-27.34,27.59-40.53,41.47-23.79,25-10.73,55.9,21.48,57.32,24.07,1.07,54.19-7.5,69.52,17.24,23.26,37.54-20.15,72.47-55.91,65.43-15.13-3-23.25-10.64-39.36-6-15.25,4.4-25.48,14.33-30.71,29.41-10.9,31.51,25,79.37-14.53,95.87-21.83,9.11-53.19,10.31-58.16,39.27-7.33,42.68,56.62,74.2,92,69.18,20.61-2.92,38.79-10.41,60.11-11.77,29.12-1.86,57.7-6,84-19.54,17.38-8.93,31.21-21.74,42.7-37.12,3.38,1.2,6.76-.42,8.9-3.31,21.56-29.08,40.62-68.54,37.46-105.53a115.39,115.39,0,0,0,9.61-24.2A93.49,93.49,0,0,0,1127.31,536Z" transform="translate(-274.22 -130.15)"/><path class="cls-2" d="M902.25,744.89c-4-10.36-4.69-21.69-3.94-32.72s3.33-22.92,10-31.64a31.29,31.29,0,0,1,2.38-2.69c.43-.44.88-.86,1.35-1.27s1.07-.91,1.52-1.24a20.18,20.18,0,0,1,7.63-3c6.17-1.35,12.95-1.68,18.31-5.38,1.42-1,2.72-2.13,4.12-3.16a50,50,0,0,0,4.25-3.45,32.6,32.6,0,0,0,6.36-7.77c3.38-5.87,4.76-13.43,2.35-19.9a52.71,52.71,0,0,0-4.58-8.82c-.79-1.29-1.57-2.59-2.24-4a9.81,9.81,0,0,1-.56-1.33c-.09-.28-.18-.57-.25-.86l-.09-.37c-.1-.45,0,.09,0-.18a7.48,7.48,0,0,1,0-.82c0-.48,0,.21,0-.26s.2-1.16.33-1.73a26.93,26.93,0,0,1,.93-3.18l.3-.78c0-.12.09-.23.13-.34l0-.07c.23-.52.47-1,.73-1.54a33.3,33.3,0,0,1,1.79-3.13A48.31,48.31,0,0,1,963,594.5a77.42,77.42,0,0,1,13.56-8.9,88.46,88.46,0,0,1,15.33-6.32c2.59-.79,5.21-1.47,7.86-2,1.28-.26,2.57-.49,3.86-.69,1-.15,2.1-.29,3.37-.4a52.17,52.17,0,0,1,7.29-.17c1,0,2.48.18,3.12.26-.2,0,.43.07.58.09l.68.12c.55.1,1.1.21,1.64.34a26.73,26.73,0,0,1,2.9.85l.69.25.38.16-.12-.05c.79.35,1.56.76,2.33,1.17,3.42,1.79,6.74,3.78,10,5.86,6.49,4.14,12.73,8.65,19.21,12.79,3.26,2.08,6.58,4.06,10,5.86s7,3.3,10.61,4.83c5.27,2.25,10.63,4.27,15.65,7.16a28.11,28.11,0,0,1,6.12,4.52,16.42,16.42,0,0,1,3.88,6,20,20,0,0,1,.92,8.39,2.51,2.51,0,0,0,2.5,2.5,2.55,2.55,0,0,0,2.5-2.5,22.39,22.39,0,0,0-5.51-17.08c-3.83-4.24-9.08-7-14.22-9.28-6.2-2.78-12.51-5-18.62-8.14a186,186,0,0,1-20.15-12.42,217,217,0,0,0-20-12.58,34.66,34.66,0,0,0-14.25-4c-10.7-.72-21.71,2-31.59,5.9-10.61,4.22-20.89,10.18-28.84,18.47a42.57,42.57,0,0,0-8.5,12.37,28.76,28.76,0,0,0-2.08,7,12.87,12.87,0,0,0,1.74,8.33c2.93,5.6,7.31,10.62,7,17.31s-3.76,12.19-8.56,16.54a41.62,41.62,0,0,1-4,3.22c-1.38,1-2.58,2.15-4,3a26.72,26.72,0,0,1-8.73,2.93c-3.21.63-6.48,1-9.64,1.92a23.41,23.41,0,0,0-8.36,4.27c-9,7.2-13.15,19.38-15,30.36a93.18,93.18,0,0,0,.86,36.6,54.53,54.53,0,0,0,2.12,7A2.57,2.57,0,0,0,900.5,748a2.53,2.53,0,0,0,1.75-3.08Z" transform="translate(-274.22 -130.15)"/><path class="cls-2" d="M915.27,737.81A37.68,37.68,0,0,1,912.61,711a33.72,33.72,0,0,1,6.06-11.86,23.31,23.31,0,0,1,4.72-4.69c1.52-1,3.09-2,4.7-2.95,5.35-3.06,11.11-5.16,16.72-7.66,4.87-2.18,9.4-4.94,12.65-9.26,4.59-6.09,6.29-14,7.3-21.41.54-4,.92-8.06,1.49-12.08s1.23-7.91,2.08-11.82a82.36,82.36,0,0,1,7.86-22.35,50,50,0,0,1,15.88-17.66,47.87,47.87,0,0,1,12.51-6.09,36.76,36.76,0,0,1,15.32-1.31c10,1.26,19.21,6.41,27.09,12.51,1.88,1.46,3.71,3,5.49,4.57.48.43,1.19-.28.7-.71-7.45-6.61-15.88-12.55-25.45-15.62a38.28,38.28,0,0,0-29.53,2,50.24,50.24,0,0,0-19,15.72,67.57,67.57,0,0,0-10,21.47,159.29,159.29,0,0,0-4.53,24c-1,8.26-1.73,16.82-5.61,24.35a24.72,24.72,0,0,1-5.2,6.94,28.94,28.94,0,0,1-6.54,4.42c-5.31,2.73-11,4.6-16.36,7.29-1.6.8-3.18,1.67-4.72,2.6a29.31,29.31,0,0,0-4.71,3.23,33.94,33.94,0,0,0-7.88,10.78,37.8,37.8,0,0,0-1.75,26.42,40.28,40.28,0,0,0,2.56,6.45c.28.58,1.14.07.86-.5Z" transform="translate(-274.22 -130.15)"/><path class="cls-2" d="M930.32,727.43c-1.65-5.95-2.19-12.5.49-18.23,2.27-4.86,6.44-8.41,11-11.07a87.82,87.82,0,0,1,16.43-7c5.68-1.93,11.44-3.65,17-5.9,5.27-2.12,10.24-4.72,14.09-9a28.16,28.16,0,0,0,6.38-11.77,39.52,39.52,0,0,0,.9-12.51c-.56-8.63-2.8-17.14-2.51-25.83A30.18,30.18,0,0,1,997,613.71a32.39,32.39,0,0,1,8.17-10.55,24.56,24.56,0,0,1,20.55-4.88,42.65,42.65,0,0,1,19.86,10.29,50.34,50.34,0,0,1,3.88,3.85c.43.48,1.13-.23.7-.71a47.59,47.59,0,0,0-18.74-12.88c-6.88-2.51-14.58-3-21.36.09a26.58,26.58,0,0,0-9.39,7.34,32.67,32.67,0,0,0-6.44,12c-2.33,8.45-.69,17.3.49,25.79s2,17.55-2,25.49a27.31,27.31,0,0,1-7.86,9.51,37.58,37.58,0,0,1-6.61,3.84A151.19,151.19,0,0,1,961.56,689a127.6,127.6,0,0,0-17.24,6.65c-4.87,2.43-9.57,5.61-12.7,10.15-3.36,4.88-4.19,10.8-3.39,16.58a42.05,42.05,0,0,0,1.12,5.33.5.5,0,0,0,1-.26Z" transform="translate(-274.22 -130.15)"/><path class="cls-2" d="M960.32,725.93c-1.91-4.79-3.3-10.34-1.48-15.37,1.39-3.85,4.59-6.59,8.09-8.51a61.87,61.87,0,0,1,12.85-4.85,126.72,126.72,0,0,0,12.68-4,23.29,23.29,0,0,0,4.87-2.55,41.54,41.54,0,0,0,8.69-7.78,24.05,24.05,0,0,0,4.33-8.22,29.37,29.37,0,0,0,1-8.55c-.08-6.08-1.31-12.07-1.45-18.14a40.88,40.88,0,0,1,.93-10,33.12,33.12,0,0,1,3.58-9.7,20.58,20.58,0,0,1,13.76-10,19.11,19.11,0,0,1,16.23,5.12,27.72,27.72,0,0,1,3.48,3.93c.37.51,1.24,0,.86-.51-3.79-5.18-9.26-9.15-15.79-9.75a20,20,0,0,0-15.63,5.87,24.89,24.89,0,0,0-5.34,8,39.54,39.54,0,0,0-2.72,10.2c-.86,6.42.07,12.81.71,19.2.59,5.89.76,12-1.87,17.45a27.12,27.12,0,0,1-6.5,8.36,34.4,34.4,0,0,1-7.14,5.13c-3.84,2-8.11,3.06-12.24,4.23A94.83,94.83,0,0,0,968.8,700c-3.8,1.74-7.52,4.15-9.73,7.79-2.54,4.19-2.43,9.25-1.23,13.86a38.49,38.49,0,0,0,1.51,4.55c.24.59,1.21.34,1-.26Z" transform="translate(-274.22 -130.15)"/><path class="cls-2" d="M1042.58,647.63c-2.92-2.24-6.88-4.38-10.6-2.83-3.25,1.36-5.08,4.84-6.33,7.94a65.9,65.9,0,0,0-3.37,13.27c-.73,4.31-1.26,8.65-1.94,13a43.48,43.48,0,0,1-.92,4.68,16.72,16.72,0,0,1-2.39,5,50.37,50.37,0,0,1-9.42,9.93c-4,3.45-8.23,6.66-12.35,10a107.73,107.73,0,0,0-11.6,10.38c-3,3.26-5.81,7-7.22,11.22a17.25,17.25,0,0,0,.7,12.44,23.6,23.6,0,0,0,1.76,3.24c.35.54,1.22,0,.87-.5-2.38-3.7-3.75-8-3-12.4.72-4.21,3.05-7.95,5.73-11.18a80.92,80.92,0,0,1,10.87-10.39c4-3.35,8.23-6.53,12.29-9.86a73,73,0,0,0,10.28-9.76,21.55,21.55,0,0,0,4.83-9.5c.78-3.85,1.21-7.77,1.79-11.66a106.73,106.73,0,0,1,2.71-13.61c1-3.47,2.32-7.36,5-9.89a6.47,6.47,0,0,1,3.78-1.77,9.19,9.19,0,0,1,5,1.26,20.85,20.85,0,0,1,3,1.94c.51.4,1-.47.5-.86Z" transform="translate(-274.22 -130.15)"/><path class="cls-3" d="M975.24,370.7c-5.06-4.53-10.56-6-14.92,0-8,11.07,18.46,27,26.48,28.26a2.54,2.54,0,0,0,2.87-2.76C989.5,391.21,982.88,377.53,975.24,370.7Z" transform="translate(-274.22 -130.15)"/><path class="cls-3" d="M1020.66,392.09c-5.06-4.52-10.57-6-14.93,0-8,11.07,18.47,27,26.49,28.26a2.54,2.54,0,0,0,2.87-2.76C1034.92,412.6,1028.29,398.92,1020.66,392.09Z" transform="translate(-274.22 -130.15)"/><path class="cls-3" d="M938.77,417.13c-3.76-3.37-7.85-4.49-11.1,0-6,8.24,13.73,20.05,19.7,21a1.89,1.89,0,0,0,2.14-2.05C949.38,432.38,944.45,422.21,938.77,417.13Z" transform="translate(-274.22 -130.15)"/><path class="cls-3" d="M1026.29,454.29c-3.77-3.37-7.86-4.49-11.11,0-6,8.24,13.74,20.06,19.7,21a1.89,1.89,0,0,0,2.14-2.05C1036.89,469.55,1032,459.37,1026.29,454.29Z" transform="translate(-274.22 -130.15)"/><path class="cls-3" d="M964.26,328.21c-3.76-3.37-7.86-4.49-11.1,0-6,8.24,13.73,20.06,19.69,21a1.89,1.89,0,0,0,2.14-2.05C974.87,343.46,969.94,333.29,964.26,328.21Z" transform="translate(-274.22 -130.15)"/><path class="cls-3" d="M975.36,406.61c-10.36-9.28-21.57,2.89-13.82,13.57,4.07,5.6,20.39,13.28,26.59,14.24C988.7,427.22,980.75,411.44,975.36,406.61Z" transform="translate(-274.22 -130.15)"/><path class="cls-4" d="M1042.4,256c-.29-.76-.55-1.54-.77-2.32-3.72-12.79-1.45-36.46-12.27-46.18-12.51-11.24-29.08-3.57-39.89,6.71-19.36,18.4-11.19,40.78,5,57.48,6.45,6.63,11.63,13.22,13.73,22.58,2.14,9.53-1.63,21.47,4.46,29.91,13.62,18.86,57.75,3.59,57.57-19.11C1070.12,287.52,1048.91,273.4,1042.4,256Z" transform="translate(-274.22 -130.15)"/><rect class="cls-5" y="78.78" width="750" height="500"/></svg>